<?xml version="1.0" encoding="UTF-8" standalone="no"?>
<!DOCTYPE svg PUBLIC "-//W3C//DTD SVG 1.1//EN" "http://www.w3.org/Graphics/SVG/1.1/DTD/svg11.dtd">
<svg xmlns="http://www.w3.org/2000/svg" version="1.1" viewBox="0.00 0.00 1024.00 1024.00">
<g stroke-width="2.00" fill="none" stroke-linecap="butt">
<path stroke="#858e96" vector-effect="non-scaling-stroke" d="
  M 691.48 261.55
  Q 693.11 268.84 691.36 276.04
  A 0.89 0.88 -70.4 0 0 691.83 277.04
  C 709.63 285.79 706.47 308.31 700.62 323.38
  Q 697.41 331.65 693.49 338.73
  Q 675.47 371.21 650.39 398.13
  Q 647.50 401.25 644.51 404.04
  A 0.57 0.57 0.0 0 1 643.73 404.03
  Q 624.30 385.52 602.08 368.92
  A 2.45 2.45 0.0 0 1 601.11 367.14
  Q 599.01 337.44 593.21 303.01
  Q 592.52 298.89 590.83 290.49
  A 1.49 1.49 0.0 0 1 591.76 288.80
  Q 609.27 282.12 628.22 277.42
  A 0.64 0.64 0.0 0 0 628.70 276.69
  Q 627.60 270.62 628.72 263.67
  A 0.48 0.48 0.0 0 0 628.14 263.13
  Q 607.40 267.81 587.96 274.79
  A 0.64 0.63 72.5 0 1 587.13 274.35
  Q 583.14 259.04 577.90 243.61
  Q 571.98 226.15 561.64 207.63
  C 550.06 186.90 530.56 166.06 503.96 170.53
  Q 489.10 173.03 478.25 184.05
  C 463.62 198.90 454.42 215.96 446.58 235.31
  Q 438.73 254.71 433.65 274.37
  A 0.97 0.97 0.0 0 1 432.36 275.03
  C 418.04 269.48 402.04 264.92 389.71 261.86
  C 371.52 257.34 350.91 255.01 332.46 259.96
  C 317.39 264.00 305.27 275.53 302.92 291.41
  Q 300.76 305.97 303.97 317.64
  Q 309.43 337.48 321.07 356.66
  A 0.45 0.44 48.3 0 0 321.80 356.71
  Q 325.87 351.50 331.39 348.53
  A 1.15 1.15 0.0 0 0 331.85 346.95
  Q 323.29 331.74 318.78 316.02
  Q 316.64 308.54 316.83 298.46
  C 317.47 265.97 362.24 270.42 382.23 274.82
  Q 403.14 279.43 424.97 288.03
  Q 427.34 288.97 428.99 289.79
  A 1.99 1.98 18.6 0 1 430.05 291.92
  Q 423.37 327.75 420.71 361.99
  Q 420.62 363.18 419.98 367.77
  A 2.07 2.06 75.4 0 1 419.20 369.11
  Q 402.64 381.90 386.41 396.41
  Q 381.84 400.50 377.85 404.61
  A 0.53 0.52 44.6 0 1 377.10 404.61
  L 370.42 397.94
  A 0.48 0.47 -47.0 0 0 369.72 397.97
  Q 364.98 403.63 358.45 406.26
  A 0.33 0.33 0.0 0 0 358.34 406.80
  L 366.33 414.79
  A 0.91 0.91 0.0 0 1 366.36 416.04
  Q 356.25 427.00 346.26 438.50
  Q 325.37 462.51 311.75 489.72
  C 305.18 502.85 301.37 515.85 301.99 530.51
  Q 303.00 554.15 323.26 565.20
  Q 333.02 570.52 343.04 571.41
  Q 371.74 573.96 400.13 566.09
  Q 416.93 561.43 433.50 555.13
  A 1.06 1.05 72.4 0 1 434.90 555.86
  Q 441.15 581.33 450.85 604.64
  C 457.91 621.58 467.46 636.99 480.94 649.48
  C 493.40 661.03 508.67 664.81 524.59 658.86
  C 538.24 653.75 547.18 644.77 554.85 633.16
  A 0.58 0.58 0.0 0 0 554.46 632.27
  Q 548.07 631.20 542.32 627.57
  A 0.87 0.87 0.0 0 0 541.17 627.78
  C 531.28 640.90 513.26 654.00 496.62 642.75
  C 484.40 634.49 475.30 621.17 468.94 608.29
  Q 455.43 580.93 448.54 550.38
  A 0.67 0.66 -16.3 0 1 448.97 549.61
  Q 469.27 542.64 488.34 532.82
  Q 499.33 527.17 508.49 522.45
  Q 510.46 521.43 512.69 522.55
  C 526.49 529.50 537.57 535.57 548.78 540.28
  Q 560.43 545.18 571.53 549.36
  A 1.25 1.24 16.6 0 1 572.31 550.80
  L 568.16 569.16
  A 0.70 0.70 0.0 0 0 568.69 569.99
  Q 575.87 571.54 581.21 575.66
  A 0.40 0.40 0.0 0 0 581.85 575.43
  L 586.34 555.55
  A 0.61 0.61 0.0 0 1 587.13 555.11
  Q 608.95 562.79 631.45 567.92
  C 649.01 571.93 665.21 573.34 681.73 570.45
  Q 688.30 569.29 694.67 566.47
  C 728.52 551.43 722.45 513.48 708.73 487.27
  C 694.96 460.94 675.86 437.36 655.47 416.13
  A 1.22 1.22 0.0 0 1 655.42 414.50
  C 657.46 412.10 659.40 409.48 661.39 407.35
  Q 682.18 385.12 698.37 359.88
  Q 707.47 345.68 713.76 330.69
  C 724.83 304.33 723.05 271.80 691.91 261.17
  A 0.33 0.33 0.0 0 0 691.48 261.55"
/>
<path stroke="#206d89" vector-effect="non-scaling-stroke" d="
  M 685.07 269.59
  A 25.20 25.20 0.0 0 0 659.87 244.39
  A 25.20 25.20 0.0 0 0 634.67 269.59
  A 25.20 25.20 0.0 0 0 659.87 294.79
  A 25.20 25.20 0.0 0 0 685.07 269.59"
/>
<path stroke="#206d89" vector-effect="non-scaling-stroke" d="
  M 353.7223 352.9912
  A 24.72 24.34 -72.6 0 0 323.1038 369.3013
  A 24.72 24.34 -72.6 0 0 338.9377 400.1688
  A 24.72 24.34 -72.6 0 0 369.5562 383.8587
  A 24.72 24.34 -72.6 0 0 353.7223 352.9912"
/>
<path stroke="#206d89" vector-effect="non-scaling-stroke" d="
  M 563.6742 575.3114
  A 25.01 24.57 -82.2 0 0 535.9373 596.7555
  A 25.01 24.57 -82.2 0 0 556.8858 624.8686
  A 25.01 24.57 -82.2 0 0 584.6227 603.4245
  A 25.01 24.57 -82.2 0 0 563.6742 575.3114"
/>
<path stroke="#858e96" vector-effect="non-scaling-stroke" d="
  M 154.79 794.95
  C 164.17 786.09 165.35 775.19 164.80 762.74
  C 163.88 742.12 150.14 727.32 128.28 730.60
  C 115.56 732.51 107.22 742.17 104.56 754.35
  C 100.80 771.60 103.70 797.57 124.44 802.96
  Q 132.11 804.95 142.40 803.26
  A 1.26 1.23 -25.6 0 1 143.52 803.64
  L 154.50 815.50
  A 0.53 0.53 0.0 0 0 155.21 815.57
  L 165.26 807.91
  A 0.66 0.66 0.0 0 0 165.33 806.91
  L 154.76 796.35
  A 0.98 0.97 -44.0 0 1 154.79 794.95"
/>
<path stroke="#858e96" vector-effect="non-scaling-stroke" d="
  M 589.03 782.69
  C 589.11 793.90 598.06 801.02 608.19 803.32
  C 621.40 806.32 638.60 802.24 642.47 787.51
  Q 646.60 771.80 632.85 764.42
  C 626.71 761.13 617.20 759.78 612.38 758.36
  C 607.35 756.89 603.31 753.69 605.80 747.96
  C 608.10 742.66 616.73 742.23 621.31 743.72
  Q 626.21 745.31 627.83 750.04
  A 1.08 1.08 0.0 0 0 628.85 750.77
  L 640.82 750.77
  A 0.95 0.94 87.8 0 0 641.76 749.75
  C 639.46 722.77 590.77 723.59 590.34 751.01
  C 590.17 761.48 597.51 767.73 606.97 770.55
  C 611.84 772.00 618.45 772.81 623.91 775.59
  C 629.85 778.61 629.68 787.43 623.56 789.83
  Q 615.48 793.01 607.03 788.57
  A 4.57 4.42 78.4 0 1 606.14 787.96
  Q 604.06 786.16 602.66 782.46
  A 0.75 0.74 79.9 0 0 601.96 781.97
  L 589.74 781.97
  A 0.71 0.71 0.0 0 0 589.03 782.69"
/>
<path stroke="#858e96" vector-effect="non-scaling-stroke" d="
  M 711.99 766.24
  C 711.67 776.83 713.58 786.22 720.68 794.29
  C 726.51 800.92 734.32 803.96 743.07 804.22
  C 751.83 804.48 759.80 801.90 766.01 795.64
  C 773.58 788.00 776.04 778.74 776.35 768.15
  C 776.67 757.57 774.76 748.17 767.66 740.10
  C 761.83 733.48 754.02 730.44 745.27 730.18
  C 736.51 729.92 728.54 732.49 722.33 738.76
  C 714.76 746.39 712.30 755.66 711.99 766.24"
/>
<path stroke="#858e96" vector-effect="non-scaling-stroke" d="
  M 848.05 779.97
  L 835.17 779.97
  A 0.97 0.97 0.0 0 0 834.22 780.74
  C 831.67 792.61 817.28 793.97 809.67 786.52
  C 802.32 779.32 802.68 760.33 807.03 751.55
  C 812.57 740.35 832.75 740.30 834.15 754.65
  A 0.98 0.98 0.0 0 0 835.13 755.54
  L 847.78 755.54
  A 0.87 0.87 0.0 0 0 848.65 754.58
  Q 847.31 742.00 837.98 735.31
  C 830.53 729.97 818.84 728.74 810.05 731.63
  C 798.68 735.36 791.61 745.01 789.80 756.51
  C 787.70 769.89 788.43 784.53 797.41 794.58
  Q 805.66 803.84 819.49 804.12
  Q 844.32 804.62 848.50 780.51
  A 0.46 0.46 0.0 0 0 848.05 779.97"
/>
<path stroke="#858e96" vector-effect="non-scaling-stroke" d="
  M 331.62 770.58
  Q 337.99 781.36 352.01 802.31
  A 1.22 1.22 0.0 0 0 353.02 802.85
  L 363.38 802.85
  A 0.69 0.69 0.0 0 0 364.07 802.16
  L 364.07 732.20
  A 0.65 0.64 90.0 0 0 363.43 731.55
  L 349.82 731.55
  A 0.52 0.51 0.0 0 0 349.30 732.06
  L 349.30 774.05
  A 0.20 0.20 0.0 0 1 348.93 774.15
  C 346.97 770.65 344.72 767.35 342.63 763.82
  Q 336.27 753.04 322.25 732.09
  A 1.22 1.22 0.0 0 0 321.23 731.55
  L 310.87 731.55
  A 0.69 0.69 0.0 0 0 310.18 732.24
  L 310.18 802.20
  A 0.65 0.64 90.0 0 0 310.82 802.85
  L 324.43 802.85
  A 0.52 0.51 0.0 0 0 324.95 802.34
  L 324.95 760.35
  A 0.20 0.20 0.0 0 1 325.32 760.25
  C 327.29 763.74 329.54 767.05 331.62 770.58"
/>
<path stroke="#858e96" vector-effect="non-scaling-stroke" d="
  M 401.68 803.02
  Q 406.81 803.01 408.58 802.88
  A 0.56 0.55 -2.3 0 0 409.09 802.33
  L 409.09 746.46
  A 0.56 0.55 0.0 0 1 409.65 745.91
  L 425.77 745.91
  A 1.30 1.30 0.0 0 0 427.07 744.60
  L 427.03 732.36
  A 0.69 0.69 0.0 0 0 426.23 731.67
  Q 426.12 731.69 401.55 731.73
  Q 376.99 731.78 376.88 731.76
  A 0.69 0.69 0.0 0 0 376.08 732.45
  L 376.09 744.69
  A 1.30 1.30 0.0 0 0 377.39 746.00
  L 393.51 745.94
  A 0.56 0.55 -0.2 0 1 394.07 746.49
  L 394.28 802.36
  A 0.56 0.55 2.1 0 0 394.79 802.91
  Q 396.56 803.03 401.68 803.02"
/>
<path stroke="#858e96" vector-effect="non-scaling-stroke" d="
  M 465.64 804.05
  C 476.88 804.04 485.81 799.45 490.04 788.94
  C 492.42 783.00 492.14 777.07 492.14 769.28
  Q 492.14 741.65 492.10 732.39
  A 0.65 0.65 0.0 0 0 491.45 731.74
  L 477.98 731.74
  A 0.68 0.68 0.0 0 0 477.30 732.42
  Q 477.32 755.52 477.42 773.75
  C 477.47 782.22 476.28 790.85 465.63 790.85
  C 454.97 790.86 453.77 782.24 453.80 773.77
  Q 453.87 755.54 453.86 732.44
  A 0.68 0.68 0.0 0 0 453.18 731.76
  L 439.71 731.78
  A 0.65 0.65 0.0 0 0 439.06 732.43
  Q 439.03 741.69 439.08 769.32
  C 439.09 777.11 438.82 783.04 441.21 788.97
  C 445.45 799.48 454.39 804.06 465.64 804.05"
/>
<path stroke="#858e96" vector-effect="non-scaling-stroke" d="
  M 541.57 789.47
  Q 543.62 789.47 544.14 788.61
  Q 552.62 774.44 560.84 759.62
  A 0.24 0.23 59.9 0 1 561.28 759.74
  L 561.28 802.25
  A 0.73 0.72 90.0 0 0 562.00 802.98
  L 574.86 802.98
  A 1.15 1.14 90.0 0 0 576.00 801.83
  L 576.00 732.10
  A 0.41 0.41 0.0 0 0 575.59 731.69
  L 563.35 731.69
  A 1.55 1.53 14.6 0 0 562.01 732.46
  Q 547.96 756.83 541.83 767.39
  Q 541.70 767.61 541.53 767.61
  Q 541.36 767.61 541.23 767.39
  Q 535.07 756.85 520.94 732.53
  A 1.55 1.53 -14.8 0 0 519.60 731.76
  L 507.36 731.80
  A 0.41 0.41 0.0 0 0 506.95 732.21
  L 507.18 801.94
  A 1.15 1.14 89.8 0 0 508.32 803.09
  L 521.18 803.05
  A 0.73 0.72 89.8 0 0 521.90 802.31
  L 521.76 759.80
  A 0.24 0.23 -60.1 0 1 522.20 759.68
  Q 530.47 774.48 538.99 788.62
  Q 539.51 789.47 541.57 789.47"
/>
<path stroke="#858e96" vector-effect="non-scaling-stroke" d="
  M 876.96 761.84
  L 876.96 732.39
  A 0.65 0.65 0.0 0 0 876.31 731.74
  L 862.70 731.74
  A 0.59 0.58 -0.0 0 0 862.11 732.32
  L 862.11 802.30
  A 0.71 0.71 0.0 0 0 862.82 803.01
  L 876.22 803.01
  A 0.65 0.65 0.0 0 0 876.87 802.37
  Q 877.04 795.00 876.86 786.38
  Q 876.78 782.10 878.12 780.31
  Q 882.01 775.14 883.46 773.31
  A 0.30 0.30 0.0 0 1 883.94 773.34
  L 901.89 802.20
  A 1.72 1.70 -15.7 0 0 903.35 803.01
  L 919.78 803.01
  A 0.47 0.46 -17.3 0 0 920.17 802.28
  L 893.42 763.36
  A 1.74 1.73 47.0 0 1 893.48 761.30
  L 916.03 732.18
  A 0.30 0.30 0.0 0 0 915.79 731.70
  L 900.67 731.70
  A 3.33 3.30 17.8 0 0 897.98 733.07
  L 877.10 761.89
  A 0.08 0.08 0.0 0 1 876.96 761.84"
/>
<path stroke="#858e96" vector-effect="non-scaling-stroke" d="
  M 204.21 804.20
  C 215.49 804.22 224.45 799.63 228.71 789.09
  C 231.11 783.14 230.85 777.20 230.86 769.38
  Q 230.92 741.67 230.90 732.38
  A 0.65 0.65 0.0 0 0 230.25 731.73
  L 216.74 731.70
  A 0.68 0.68 0.0 0 0 216.05 732.38
  Q 216.03 755.55 216.09 773.83
  C 216.12 782.33 214.91 790.98 204.22 790.97
  C 193.53 790.95 192.35 782.30 192.40 773.80
  Q 192.51 755.52 192.54 732.35
  A 0.68 0.68 0.0 0 0 191.86 731.67
  L 178.35 731.66
  A 0.65 0.65 0.0 0 0 177.70 732.31
  Q 177.65 741.60 177.64 769.31
  C 177.63 777.13 177.35 783.08 179.74 789.03
  C 183.97 799.58 192.92 804.19 204.21 804.20"
/>
<path stroke="#858e96" vector-effect="non-scaling-stroke" d="
  M 269.09 789.31
  Q 277.85 789.33 280.10 789.42
  A 0.46 0.46 0.0 0 1 280.51 789.73
  L 284.54 802.24
  A 1.18 1.18 0.0 0 0 285.67 803.07
  L 299.40 803.07
  A 0.84 0.83 80.9 0 0 300.19 801.97
  L 277.77 732.36
  A 0.84 0.83 -8.1 0 0 276.99 731.78
  Q 273.16 731.72 269.25 731.71
  Q 265.33 731.70 261.50 731.74
  A 0.84 0.83 8.4 0 0 260.72 732.31
  L 237.92 801.80
  A 0.84 0.83 -80.6 0 0 238.70 802.91
  L 252.43 802.98
  A 1.18 1.18 0.0 0 0 253.57 802.16
  L 257.67 789.67
  A 0.46 0.46 0.0 0 1 258.08 789.36
  Q 260.33 789.29 269.09 789.31"
/>
<path stroke="#858e96" vector-effect="non-scaling-stroke" d="
  M 678.05 803.00
  Q 683.63 803.00 685.17 802.92
  A 0.31 0.31 0.0 0 0 685.46 802.61
  L 685.46 746.24
  A 0.34 0.34 0.0 0 1 685.80 745.90
  L 704.14 745.90
  A 0.84 0.84 0.0 0 0 704.98 745.06
  L 704.98 732.47
  A 0.74 0.73 0.0 0 0 704.24 731.74
  Q 690.72 731.77 678.00 731.78
  Q 665.28 731.79 651.76 731.78
  A 0.74 0.73 -0.1 0 0 651.02 732.51
  L 651.04 745.10
  A 0.84 0.84 0.0 0 0 651.88 745.94
  L 670.22 745.91
  A 0.34 0.34 0.0 0 1 670.56 746.25
  L 670.65 802.62
  A 0.31 0.31 0.0 0 0 670.94 802.93
  Q 672.48 803.00 678.05 803.00"
/>
<path stroke="#858e96" vector-effect="non-scaling-stroke" d="
  M 573.51 278.95
  C 570.08 264.75 564.21 247.66 558.82 234.88
  C 551.81 218.28 542.16 200.83 527.85 189.90
  C 516.35 181.12 500.28 183.72 490.13 193.19
  Q 479.71 202.92 473.04 214.55
  C 461.56 234.57 453.46 256.78 447.91 279.33
  A 1.54 1.54 0.0 0 0 448.83 281.13
  Q 460.18 285.69 476.24 292.73
  C 487.61 297.71 496.91 302.91 508.77 308.99
  Q 511.38 310.32 513.55 309.08
  Q 543.08 292.27 572.85 280.23
  A 1.11 1.10 72.5 0 0 573.51 278.95"
/>
<path stroke="#858e96" vector-effect="non-scaling-stroke" d="
  M 585.46 355.76
  Q 582.51 325.60 576.98 295.42
  A 0.65 0.65 0.0 0 0 576.08 294.94
  Q 550.89 305.52 527.86 318.14
  A 0.83 0.83 0.0 0 0 527.88 319.61
  Q 538.06 324.89 548.50 331.52
  Q 566.75 343.11 584.74 356.17
  A 0.46 0.45 -74.6 0 0 585.46 355.76"
/>
<path stroke="#858e96" vector-effect="non-scaling-stroke" d="
  M 436.51 356.24
  Q 446.26 349.66 454.73 343.74
  Q 470.46 332.73 489.85 321.85
  Q 490.62 321.41 494.37 318.97
  A 0.36 0.36 0.0 0 0 494.34 318.36
  Q 470.22 305.16 444.93 296.14
  A 0.77 0.76 15.9 0 0 443.92 296.70
  Q 442.22 304.94 441.06 313.07
  Q 438.29 332.35 435.88 355.86
  A 0.41 0.40 75.9 0 0 436.51 356.24"
/>
<path stroke="#858e96" vector-effect="non-scaling-stroke" d="
  M 511.94 504.47
  Q 530.24 493.99 542.21 486.45
  Q 561.09 474.56 585.01 455.86
  A 3.84 3.82 74.1 0 0 586.46 453.24
  Q 590.38 414.97 586.80 376.11
  A 1.11 1.09 16.1 0 0 586.35 375.31
  Q 551.11 348.49 511.77 327.50
  A 2.15 2.14 44.6 0 0 509.74 327.51
  Q 493.13 336.59 478.15 345.90
  Q 464.87 354.16 436.74 374.73
  Q 435.03 375.98 434.78 378.38
  C 432.42 400.61 432.37 421.96 433.89 443.71
  Q 434.37 450.69 435.17 454.77
  A 1.21 1.20 12.9 0 0 435.64 455.51
  Q 466.32 478.47 497.77 497.23
  Q 504.46 501.22 510.73 504.49
  A 1.26 1.26 0.0 0 0 511.94 504.47"
/>
<path stroke="#858e96" vector-effect="non-scaling-stroke" d="
  M 603.02 414.90
  Q 603.00 430.91 602.18 441.84
  A 0.33 0.32 72.4 0 0 602.71 442.12
  Q 618.18 429.53 632.99 415.42
  Q 633.13 415.28 633.13 414.94
  Q 633.13 414.61 633.00 414.48
  Q 618.23 400.31 602.80 387.67
  A 0.33 0.32 -72.2 0 0 602.28 387.95
  Q 603.05 398.88 603.02 414.90"
/>
<path stroke="#858e96" vector-effect="non-scaling-stroke" d="
  M 418.08 415.14
  Q 418.12 399.49 418.93 388.80
  A 0.32 0.32 0.0 0 0 418.42 388.53
  Q 403.28 400.82 388.78 414.59
  Q 388.64 414.72 388.64 415.06
  Q 388.64 415.38 388.78 415.51
  Q 403.19 429.38 418.25 441.75
  A 0.32 0.32 0.0 0 0 418.77 441.49
  Q 418.03 430.80 418.08 415.14"
/>
<path stroke="#858e96" vector-effect="non-scaling-stroke" d="
  M 377.92 426.06
  A 0.68 0.67 34.6 0 0 377.13 426.20
  Q 354.48 449.93 336.34 476.32
  Q 326.58 490.50 320.66 506.41
  Q 316.40 517.86 316.59 529.92
  C 316.87 547.60 331.72 556.05 347.53 557.06
  Q 370.31 558.52 393.01 552.90
  C 404.21 550.13 419.15 545.52 430.78 541.12
  A 1.01 1.00 73.9 0 0 431.40 539.98
  Q 427.39 519.89 425.14 506.42
  C 422.80 492.42 421.69 476.82 420.03 462.50
  A 3.45 3.42 -74.7 0 0 418.72 460.18
  C 403.81 448.53 391.83 439.02 378.97 426.78
  Q 378.58 426.41 377.92 426.06"
/>
<path stroke="#858e96" vector-effect="non-scaling-stroke" d="
  M 590.50 540.81
  C 608.52 547.58 625.72 552.87 645.31 555.67
  C 667.80 558.88 705.80 559.78 704.99 526.96
  C 704.59 510.81 697.09 495.96 688.97 482.52
  Q 670.74 452.35 645.21 426.53
  A 1.18 1.17 46.6 0 0 643.59 426.48
  Q 625.69 442.49 603.63 459.88
  Q 601.27 461.74 601.11 463.37
  Q 598.20 492.93 597.44 497.66
  Q 594.33 516.89 589.54 539.04
  A 1.54 1.53 16.6 0 0 590.50 540.81"
/>
<path stroke="#858e96" vector-effect="non-scaling-stroke" d="
  M 585.28 473.89
  A 0.19 0.19 0.0 0 0 584.97 473.76
  Q 577.99 479.71 570.28 485.02
  Q 546.73 501.22 527.18 512.49
  A 0.64 0.64 0.0 0 0 527.20 513.60
  C 542.03 521.64 555.71 526.85 575.32 534.60
  A 0.46 0.45 -73.5 0 0 575.93 534.26
  Q 581.68 506.82 585.10 479.01
  Q 585.43 476.30 585.28 473.89"
/>
<path stroke="#858e96" vector-effect="non-scaling-stroke" d="
  M 445.93 535.22
  Q 454.76 531.31 467.14 526.34
  C 476.96 522.40 486.35 517.75 495.06 512.68
  A 0.19 0.19 0.0 0 0 495.06 512.35
  Q 464.15 495.06 436.46 474.35
  A 0.33 0.33 0.0 0 0 435.94 474.65
  Q 439.06 505.30 445.13 534.81
  A 0.58 0.58 0.0 0 0 445.93 535.22"
/>
<path stroke="#206d89" vector-effect="non-scaling-stroke" d="
  M 515.8445 368.8992
  A 46.36 45.47 -84.3 0 0 465.9948 410.5139
  A 46.36 45.47 -84.3 0 0 506.6355 461.1608
  A 46.36 45.47 -84.3 0 0 556.4852 419.5461
  A 46.36 45.47 -84.3 0 0 515.8445 368.8992"
/>
<path stroke="#858e96" vector-effect="non-scaling-stroke" d="
  M 118.35 767.13
  C 118.31 777.46 120.67 791.07 134.12 791.12
  C 147.58 791.17 150.04 777.57 150.08 767.24
  C 150.11 756.92 147.75 743.30 134.30 743.25
  C 120.84 743.20 118.38 756.80 118.35 767.13"
/>
<path stroke="#858e96" vector-effect="non-scaling-stroke" d="
  M 727.04 767.26
  C 726.97 778.39 730.24 790.96 743.94 791.04
  C 757.65 791.12 761.07 778.60 761.14 767.47
  C 761.21 756.34 757.94 743.77 744.23 743.68
  C 730.53 743.60 727.10 756.13 727.04 767.26"
/>
<path stroke="#858e96" vector-effect="non-scaling-stroke" d="
  M 269.09 777.09
  Q 272.61 777.11 276.44 777.00
  A 0.56 0.56 0.0 0 0 276.96 776.28
  Q 272.41 760.71 269.55 747.86
  Q 269.50 747.61 269.23 747.61
  Q 268.96 747.61 268.90 747.85
  Q 265.92 760.68 261.22 776.20
  A 0.56 0.56 0.0 0 0 261.74 776.92
  Q 265.56 777.07 269.09 777.09"
/>
</g>
<path fill="#0a1d2c" d="
  M 1024.00 0.00
  L 1024.00 1024.00
  L 0.00 1024.00
  L 0.00 0.00
  L 1024.00 0.00
  Z
  M 691.48 261.55
  Q 693.11 268.84 691.36 276.04
  A 0.89 0.88 -70.4 0 0 691.83 277.04
  C 709.63 285.79 706.47 308.31 700.62 323.38
  Q 697.41 331.65 693.49 338.73
  Q 675.47 371.21 650.39 398.13
  Q 647.50 401.25 644.51 404.04
  A 0.57 0.57 0.0 0 1 643.73 404.03
  Q 624.30 385.52 602.08 368.92
  A 2.45 2.45 0.0 0 1 601.11 367.14
  Q 599.01 337.44 593.21 303.01
  Q 592.52 298.89 590.83 290.49
  A 1.49 1.49 0.0 0 1 591.76 288.80
  Q 609.27 282.12 628.22 277.42
  A 0.64 0.64 0.0 0 0 628.70 276.69
  Q 627.60 270.62 628.72 263.67
  A 0.48 0.48 0.0 0 0 628.14 263.13
  Q 607.40 267.81 587.96 274.79
  A 0.64 0.63 72.5 0 1 587.13 274.35
  Q 583.14 259.04 577.90 243.61
  Q 571.98 226.15 561.64 207.63
  C 550.06 186.90 530.56 166.06 503.96 170.53
  Q 489.10 173.03 478.25 184.05
  C 463.62 198.90 454.42 215.96 446.58 235.31
  Q 438.73 254.71 433.65 274.37
  A 0.97 0.97 0.0 0 1 432.36 275.03
  C 418.04 269.48 402.04 264.92 389.71 261.86
  C 371.52 257.34 350.91 255.01 332.46 259.96
  C 317.39 264.00 305.27 275.53 302.92 291.41
  Q 300.76 305.97 303.97 317.64
  Q 309.43 337.48 321.07 356.66
  A 0.45 0.44 48.3 0 0 321.80 356.71
  Q 325.87 351.50 331.39 348.53
  A 1.15 1.15 0.0 0 0 331.85 346.95
  Q 323.29 331.74 318.78 316.02
  Q 316.64 308.54 316.83 298.46
  C 317.47 265.97 362.24 270.42 382.23 274.82
  Q 403.14 279.43 424.97 288.03
  Q 427.34 288.97 428.99 289.79
  A 1.99 1.98 18.6 0 1 430.05 291.92
  Q 423.37 327.75 420.71 361.99
  Q 420.62 363.18 419.98 367.77
  A 2.07 2.06 75.4 0 1 419.20 369.11
  Q 402.64 381.90 386.41 396.41
  Q 381.84 400.50 377.85 404.61
  A 0.53 0.52 44.6 0 1 377.10 404.61
  L 370.42 397.94
  A 0.48 0.47 -47.0 0 0 369.72 397.97
  Q 364.98 403.63 358.45 406.26
  A 0.33 0.33 0.0 0 0 358.34 406.80
  L 366.33 414.79
  A 0.91 0.91 0.0 0 1 366.36 416.04
  Q 356.25 427.00 346.26 438.50
  Q 325.37 462.51 311.75 489.72
  C 305.18 502.85 301.37 515.85 301.99 530.51
  Q 303.00 554.15 323.26 565.20
  Q 333.02 570.52 343.04 571.41
  Q 371.74 573.96 400.13 566.09
  Q 416.93 561.43 433.50 555.13
  A 1.06 1.05 72.4 0 1 434.90 555.86
  Q 441.15 581.33 450.85 604.64
  C 457.91 621.58 467.46 636.99 480.94 649.48
  C 493.40 661.03 508.67 664.81 524.59 658.86
  C 538.24 653.75 547.18 644.77 554.85 633.16
  A 0.58 0.58 0.0 0 0 554.46 632.27
  Q 548.07 631.20 542.32 627.57
  A 0.87 0.87 0.0 0 0 541.17 627.78
  C 531.28 640.90 513.26 654.00 496.62 642.75
  C 484.40 634.49 475.30 621.17 468.94 608.29
  Q 455.43 580.93 448.54 550.38
  A 0.67 0.66 -16.3 0 1 448.97 549.61
  Q 469.27 542.64 488.34 532.82
  Q 499.33 527.17 508.49 522.45
  Q 510.46 521.43 512.69 522.55
  C 526.49 529.50 537.57 535.57 548.78 540.28
  Q 560.43 545.18 571.53 549.36
  A 1.25 1.24 16.6 0 1 572.31 550.80
  L 568.16 569.16
  A 0.70 0.70 0.0 0 0 568.69 569.99
  Q 575.87 571.54 581.21 575.66
  A 0.40 0.40 0.0 0 0 581.85 575.43
  L 586.34 555.55
  A 0.61 0.61 0.0 0 1 587.13 555.11
  Q 608.95 562.79 631.45 567.92
  C 649.01 571.93 665.21 573.34 681.73 570.45
  Q 688.30 569.29 694.67 566.47
  C 728.52 551.43 722.45 513.48 708.73 487.27
  C 694.96 460.94 675.86 437.36 655.47 416.13
  A 1.22 1.22 0.0 0 1 655.42 414.50
  C 657.46 412.10 659.40 409.48 661.39 407.35
  Q 682.18 385.12 698.37 359.88
  Q 707.47 345.68 713.76 330.69
  C 724.83 304.33 723.05 271.80 691.91 261.17
  A 0.33 0.33 0.0 0 0 691.48 261.55
  Z
  M 685.07 269.59
  A 25.20 25.20 0.0 0 0 659.87 244.39
  A 25.20 25.20 0.0 0 0 634.67 269.59
  A 25.20 25.20 0.0 0 0 659.87 294.79
  A 25.20 25.20 0.0 0 0 685.07 269.59
  Z
  M 353.7223 352.9912
  A 24.72 24.34 -72.6 0 0 323.1038 369.3013
  A 24.72 24.34 -72.6 0 0 338.9377 400.1688
  A 24.72 24.34 -72.6 0 0 369.5562 383.8587
  A 24.72 24.34 -72.6 0 0 353.7223 352.9912
  Z
  M 563.6742 575.3114
  A 25.01 24.57 -82.2 0 0 535.9373 596.7555
  A 25.01 24.57 -82.2 0 0 556.8858 624.8686
  A 25.01 24.57 -82.2 0 0 584.6227 603.4245
  A 25.01 24.57 -82.2 0 0 563.6742 575.3114
  Z
  M 154.79 794.95
  C 164.17 786.09 165.35 775.19 164.80 762.74
  C 163.88 742.12 150.14 727.32 128.28 730.60
  C 115.56 732.51 107.22 742.17 104.56 754.35
  C 100.80 771.60 103.70 797.57 124.44 802.96
  Q 132.11 804.95 142.40 803.26
  A 1.26 1.23 -25.6 0 1 143.52 803.64
  L 154.50 815.50
  A 0.53 0.53 0.0 0 0 155.21 815.57
  L 165.26 807.91
  A 0.66 0.66 0.0 0 0 165.33 806.91
  L 154.76 796.35
  A 0.98 0.97 -44.0 0 1 154.79 794.95
  Z
  M 589.03 782.69
  C 589.11 793.90 598.06 801.02 608.19 803.32
  C 621.40 806.32 638.60 802.24 642.47 787.51
  Q 646.60 771.80 632.85 764.42
  C 626.71 761.13 617.20 759.78 612.38 758.36
  C 607.35 756.89 603.31 753.69 605.80 747.96
  C 608.10 742.66 616.73 742.23 621.31 743.72
  Q 626.21 745.31 627.83 750.04
  A 1.08 1.08 0.0 0 0 628.85 750.77
  L 640.82 750.77
  A 0.95 0.94 87.8 0 0 641.76 749.75
  C 639.46 722.77 590.77 723.59 590.34 751.01
  C 590.17 761.48 597.51 767.73 606.97 770.55
  C 611.84 772.00 618.45 772.81 623.91 775.59
  C 629.85 778.61 629.68 787.43 623.56 789.83
  Q 615.48 793.01 607.03 788.57
  A 4.57 4.42 78.4 0 1 606.14 787.96
  Q 604.06 786.16 602.66 782.46
  A 0.75 0.74 79.9 0 0 601.96 781.97
  L 589.74 781.97
  A 0.71 0.71 0.0 0 0 589.03 782.69
  Z
  M 711.99 766.24
  C 711.67 776.83 713.58 786.22 720.68 794.29
  C 726.51 800.92 734.32 803.96 743.07 804.22
  C 751.83 804.48 759.80 801.90 766.01 795.64
  C 773.58 788.00 776.04 778.74 776.35 768.15
  C 776.67 757.57 774.76 748.17 767.66 740.10
  C 761.83 733.48 754.02 730.44 745.27 730.18
  C 736.51 729.92 728.54 732.49 722.33 738.76
  C 714.76 746.39 712.30 755.66 711.99 766.24
  Z
  M 848.05 779.97
  L 835.17 779.97
  A 0.97 0.97 0.0 0 0 834.22 780.74
  C 831.67 792.61 817.28 793.97 809.67 786.52
  C 802.32 779.32 802.68 760.33 807.03 751.55
  C 812.57 740.35 832.75 740.30 834.15 754.65
  A 0.98 0.98 0.0 0 0 835.13 755.54
  L 847.78 755.54
  A 0.87 0.87 0.0 0 0 848.65 754.58
  Q 847.31 742.00 837.98 735.31
  C 830.53 729.97 818.84 728.74 810.05 731.63
  C 798.68 735.36 791.61 745.01 789.80 756.51
  C 787.70 769.89 788.43 784.53 797.41 794.58
  Q 805.66 803.84 819.49 804.12
  Q 844.32 804.62 848.50 780.51
  A 0.46 0.46 0.0 0 0 848.05 779.97
  Z
  M 331.62 770.58
  Q 337.99 781.36 352.01 802.31
  A 1.22 1.22 0.0 0 0 353.02 802.85
  L 363.38 802.85
  A 0.69 0.69 0.0 0 0 364.07 802.16
  L 364.07 732.20
  A 0.65 0.64 90.0 0 0 363.43 731.55
  L 349.82 731.55
  A 0.52 0.51 0.0 0 0 349.30 732.06
  L 349.30 774.05
  A 0.20 0.20 0.0 0 1 348.93 774.15
  C 346.97 770.65 344.72 767.35 342.63 763.82
  Q 336.27 753.04 322.25 732.09
  A 1.22 1.22 0.0 0 0 321.23 731.55
  L 310.87 731.55
  A 0.69 0.69 0.0 0 0 310.18 732.24
  L 310.18 802.20
  A 0.65 0.64 90.0 0 0 310.82 802.85
  L 324.43 802.85
  A 0.52 0.51 0.0 0 0 324.95 802.34
  L 324.95 760.35
  A 0.20 0.20 0.0 0 1 325.32 760.25
  C 327.29 763.74 329.54 767.05 331.62 770.58
  Z
  M 401.68 803.02
  Q 406.81 803.01 408.58 802.88
  A 0.56 0.55 -2.3 0 0 409.09 802.33
  L 409.09 746.46
  A 0.56 0.55 0.0 0 1 409.65 745.91
  L 425.77 745.91
  A 1.30 1.30 0.0 0 0 427.07 744.60
  L 427.03 732.36
  A 0.69 0.69 0.0 0 0 426.23 731.67
  Q 426.12 731.69 401.55 731.73
  Q 376.99 731.78 376.88 731.76
  A 0.69 0.69 0.0 0 0 376.08 732.45
  L 376.09 744.69
  A 1.30 1.30 0.0 0 0 377.39 746.00
  L 393.51 745.94
  A 0.56 0.55 -0.2 0 1 394.07 746.49
  L 394.28 802.36
  A 0.56 0.55 2.1 0 0 394.79 802.91
  Q 396.56 803.03 401.68 803.02
  Z
  M 465.64 804.05
  C 476.88 804.04 485.81 799.45 490.04 788.94
  C 492.42 783.00 492.14 777.07 492.14 769.28
  Q 492.14 741.65 492.10 732.39
  A 0.65 0.65 0.0 0 0 491.45 731.74
  L 477.98 731.74
  A 0.68 0.68 0.0 0 0 477.30 732.42
  Q 477.32 755.52 477.42 773.75
  C 477.47 782.22 476.28 790.85 465.63 790.85
  C 454.97 790.86 453.77 782.24 453.80 773.77
  Q 453.87 755.54 453.86 732.44
  A 0.68 0.68 0.0 0 0 453.18 731.76
  L 439.71 731.78
  A 0.65 0.65 0.0 0 0 439.06 732.43
  Q 439.03 741.69 439.08 769.32
  C 439.09 777.11 438.82 783.04 441.21 788.97
  C 445.45 799.48 454.39 804.06 465.64 804.05
  Z
  M 541.57 789.47
  Q 543.62 789.47 544.14 788.61
  Q 552.62 774.44 560.84 759.62
  A 0.24 0.23 59.9 0 1 561.28 759.74
  L 561.28 802.25
  A 0.73 0.72 90.0 0 0 562.00 802.98
  L 574.86 802.98
  A 1.15 1.14 90.0 0 0 576.00 801.83
  L 576.00 732.10
  A 0.41 0.41 0.0 0 0 575.59 731.69
  L 563.35 731.69
  A 1.55 1.53 14.6 0 0 562.01 732.46
  Q 547.96 756.83 541.83 767.39
  Q 541.70 767.61 541.53 767.61
  Q 541.36 767.61 541.23 767.39
  Q 535.07 756.85 520.94 732.53
  A 1.55 1.53 -14.8 0 0 519.60 731.76
  L 507.36 731.80
  A 0.41 0.41 0.0 0 0 506.95 732.21
  L 507.18 801.94
  A 1.15 1.14 89.8 0 0 508.32 803.09
  L 521.18 803.05
  A 0.73 0.72 89.8 0 0 521.90 802.31
  L 521.76 759.80
  A 0.24 0.23 -60.1 0 1 522.20 759.68
  Q 530.47 774.48 538.99 788.62
  Q 539.51 789.47 541.57 789.47
  Z
  M 876.96 761.84
  L 876.96 732.39
  A 0.65 0.65 0.0 0 0 876.31 731.74
  L 862.70 731.74
  A 0.59 0.58 -0.0 0 0 862.11 732.32
  L 862.11 802.30
  A 0.71 0.71 0.0 0 0 862.82 803.01
  L 876.22 803.01
  A 0.65 0.65 0.0 0 0 876.87 802.37
  Q 877.04 795.00 876.86 786.38
  Q 876.78 782.10 878.12 780.31
  Q 882.01 775.14 883.46 773.31
  A 0.30 0.30 0.0 0 1 883.94 773.34
  L 901.89 802.20
  A 1.72 1.70 -15.7 0 0 903.35 803.01
  L 919.78 803.01
  A 0.47 0.46 -17.3 0 0 920.17 802.28
  L 893.42 763.36
  A 1.74 1.73 47.0 0 1 893.48 761.30
  L 916.03 732.18
  A 0.30 0.30 0.0 0 0 915.79 731.70
  L 900.67 731.70
  A 3.33 3.30 17.8 0 0 897.98 733.07
  L 877.10 761.89
  A 0.08 0.08 0.0 0 1 876.96 761.84
  Z
  M 204.21 804.20
  C 215.49 804.22 224.45 799.63 228.71 789.09
  C 231.11 783.14 230.85 777.20 230.86 769.38
  Q 230.92 741.67 230.90 732.38
  A 0.65 0.65 0.0 0 0 230.25 731.73
  L 216.74 731.70
  A 0.68 0.68 0.0 0 0 216.05 732.38
  Q 216.03 755.55 216.09 773.83
  C 216.12 782.33 214.91 790.98 204.22 790.97
  C 193.53 790.95 192.35 782.30 192.40 773.80
  Q 192.51 755.52 192.54 732.35
  A 0.68 0.68 0.0 0 0 191.86 731.67
  L 178.35 731.66
  A 0.65 0.65 0.0 0 0 177.70 732.31
  Q 177.65 741.60 177.64 769.31
  C 177.63 777.13 177.35 783.08 179.74 789.03
  C 183.97 799.58 192.92 804.19 204.21 804.20
  Z
  M 269.09 789.31
  Q 277.85 789.33 280.10 789.42
  A 0.46 0.46 0.0 0 1 280.51 789.73
  L 284.54 802.24
  A 1.18 1.18 0.0 0 0 285.67 803.07
  L 299.40 803.07
  A 0.84 0.83 80.9 0 0 300.19 801.97
  L 277.77 732.36
  A 0.84 0.83 -8.1 0 0 276.99 731.78
  Q 273.16 731.72 269.25 731.71
  Q 265.33 731.70 261.50 731.74
  A 0.84 0.83 8.4 0 0 260.72 732.31
  L 237.92 801.80
  A 0.84 0.83 -80.6 0 0 238.70 802.91
  L 252.43 802.98
  A 1.18 1.18 0.0 0 0 253.57 802.16
  L 257.67 789.67
  A 0.46 0.46 0.0 0 1 258.08 789.36
  Q 260.33 789.29 269.09 789.31
  Z
  M 678.05 803.00
  Q 683.63 803.00 685.17 802.92
  A 0.31 0.31 0.0 0 0 685.46 802.61
  L 685.46 746.24
  A 0.34 0.34 0.0 0 1 685.80 745.90
  L 704.14 745.90
  A 0.84 0.84 0.0 0 0 704.98 745.06
  L 704.98 732.47
  A 0.74 0.73 0.0 0 0 704.24 731.74
  Q 690.72 731.77 678.00 731.78
  Q 665.28 731.79 651.76 731.78
  A 0.74 0.73 -0.1 0 0 651.02 732.51
  L 651.04 745.10
  A 0.84 0.84 0.0 0 0 651.88 745.94
  L 670.22 745.91
  A 0.34 0.34 0.0 0 1 670.56 746.25
  L 670.65 802.62
  A 0.31 0.31 0.0 0 0 670.94 802.93
  Q 672.48 803.00 678.05 803.00
  Z"
/>
<path fill="#ffffff" d="
  M 691.48 261.55
  A 0.33 0.33 0.0 0 1 691.91 261.17
  C 723.05 271.80 724.83 304.33 713.76 330.69
  Q 707.47 345.68 698.37 359.88
  Q 682.18 385.12 661.39 407.35
  C 659.40 409.48 657.46 412.10 655.42 414.50
  A 1.22 1.22 0.0 0 0 655.47 416.13
  C 675.86 437.36 694.96 460.94 708.73 487.27
  C 722.45 513.48 728.52 551.43 694.67 566.47
  Q 688.30 569.29 681.73 570.45
  C 665.21 573.34 649.01 571.93 631.45 567.92
  Q 608.95 562.79 587.13 555.11
  A 0.61 0.61 0.0 0 0 586.34 555.55
  L 581.85 575.43
  A 0.40 0.40 0.0 0 1 581.21 575.66
  Q 575.87 571.54 568.69 569.99
  A 0.70 0.70 0.0 0 1 568.16 569.16
  L 572.31 550.80
  A 1.25 1.24 16.6 0 0 571.53 549.36
  Q 560.43 545.18 548.78 540.28
  C 537.57 535.57 526.49 529.50 512.69 522.55
  Q 510.46 521.43 508.49 522.45
  Q 499.33 527.17 488.34 532.82
  Q 469.27 542.64 448.97 549.61
  A 0.67 0.66 -16.3 0 0 448.54 550.38
  Q 455.43 580.93 468.94 608.29
  C 475.30 621.17 484.40 634.49 496.62 642.75
  C 513.26 654.00 531.28 640.90 541.17 627.78
  A 0.87 0.87 0.0 0 1 542.32 627.57
  Q 548.07 631.20 554.46 632.27
  A 0.58 0.58 0.0 0 1 554.85 633.16
  C 547.18 644.77 538.24 653.75 524.59 658.86
  C 508.67 664.81 493.40 661.03 480.94 649.48
  C 467.46 636.99 457.91 621.58 450.85 604.64
  Q 441.15 581.33 434.90 555.86
  A 1.06 1.05 72.4 0 0 433.50 555.13
  Q 416.93 561.43 400.13 566.09
  Q 371.74 573.96 343.04 571.41
  Q 333.02 570.52 323.26 565.20
  Q 303.00 554.15 301.99 530.51
  C 301.37 515.85 305.18 502.85 311.75 489.72
  Q 325.37 462.51 346.26 438.50
  Q 356.25 427.00 366.36 416.04
  A 0.91 0.91 0.0 0 0 366.33 414.79
  L 358.34 406.80
  A 0.33 0.33 0.0 0 1 358.45 406.26
  Q 364.98 403.63 369.72 397.97
  A 0.48 0.47 -47.0 0 1 370.42 397.94
  L 377.10 404.61
  A 0.53 0.52 44.6 0 0 377.85 404.61
  Q 381.84 400.50 386.41 396.41
  Q 402.64 381.90 419.20 369.11
  A 2.07 2.06 75.4 0 0 419.98 367.77
  Q 420.62 363.18 420.71 361.99
  Q 423.37 327.75 430.05 291.92
  A 1.99 1.98 18.6 0 0 428.99 289.79
  Q 427.34 288.97 424.97 288.03
  Q 403.14 279.43 382.23 274.82
  C 362.24 270.42 317.47 265.97 316.83 298.46
  Q 316.64 308.54 318.78 316.02
  Q 323.29 331.74 331.85 346.95
  A 1.15 1.15 0.0 0 1 331.39 348.53
  Q 325.87 351.50 321.80 356.71
  A 0.45 0.44 48.3 0 1 321.07 356.66
  Q 309.43 337.48 303.97 317.64
  Q 300.76 305.97 302.92 291.41
  C 305.27 275.53 317.39 264.00 332.46 259.96
  C 350.91 255.01 371.52 257.34 389.71 261.86
  C 402.04 264.92 418.04 269.48 432.36 275.03
  A 0.97 0.97 0.0 0 0 433.65 274.37
  Q 438.73 254.71 446.58 235.31
  C 454.42 215.96 463.62 198.90 478.25 184.05
  Q 489.10 173.03 503.96 170.53
  C 530.56 166.06 550.06 186.90 561.64 207.63
  Q 571.98 226.15 577.90 243.61
  Q 583.14 259.04 587.13 274.35
  A 0.64 0.63 72.5 0 0 587.96 274.79
  Q 607.40 267.81 628.14 263.13
  A 0.48 0.48 0.0 0 1 628.72 263.67
  Q 627.60 270.62 628.70 276.69
  A 0.64 0.64 0.0 0 1 628.22 277.42
  Q 609.27 282.12 591.76 288.80
  A 1.49 1.49 0.0 0 0 590.83 290.49
  Q 592.52 298.89 593.21 303.01
  Q 599.01 337.44 601.11 367.14
  A 2.45 2.45 0.0 0 0 602.08 368.92
  Q 624.30 385.52 643.73 404.03
  A 0.57 0.57 0.0 0 0 644.51 404.04
  Q 647.50 401.25 650.39 398.13
  Q 675.47 371.21 693.49 338.73
  Q 697.41 331.65 700.62 323.38
  C 706.47 308.31 709.63 285.79 691.83 277.04
  A 0.89 0.88 -70.4 0 1 691.36 276.04
  Q 693.11 268.84 691.48 261.55
  Z
  M 573.51 278.95
  C 570.08 264.75 564.21 247.66 558.82 234.88
  C 551.81 218.28 542.16 200.83 527.85 189.90
  C 516.35 181.12 500.28 183.72 490.13 193.19
  Q 479.71 202.92 473.04 214.55
  C 461.56 234.57 453.46 256.78 447.91 279.33
  A 1.54 1.54 0.0 0 0 448.83 281.13
  Q 460.18 285.69 476.24 292.73
  C 487.61 297.71 496.91 302.91 508.77 308.99
  Q 511.38 310.32 513.55 309.08
  Q 543.08 292.27 572.85 280.23
  A 1.11 1.10 72.5 0 0 573.51 278.95
  Z
  M 585.46 355.76
  Q 582.51 325.60 576.98 295.42
  A 0.65 0.65 0.0 0 0 576.08 294.94
  Q 550.89 305.52 527.86 318.14
  A 0.83 0.83 0.0 0 0 527.88 319.61
  Q 538.06 324.89 548.50 331.52
  Q 566.75 343.11 584.74 356.17
  A 0.46 0.45 -74.6 0 0 585.46 355.76
  Z
  M 436.51 356.24
  Q 446.26 349.66 454.73 343.74
  Q 470.46 332.73 489.85 321.85
  Q 490.62 321.41 494.37 318.97
  A 0.36 0.36 0.0 0 0 494.34 318.36
  Q 470.22 305.16 444.93 296.14
  A 0.77 0.76 15.9 0 0 443.92 296.70
  Q 442.22 304.94 441.06 313.07
  Q 438.29 332.35 435.88 355.86
  A 0.41 0.40 75.9 0 0 436.51 356.24
  Z
  M 511.94 504.47
  Q 530.24 493.99 542.21 486.45
  Q 561.09 474.56 585.01 455.86
  A 3.84 3.82 74.1 0 0 586.46 453.24
  Q 590.38 414.97 586.80 376.11
  A 1.11 1.09 16.1 0 0 586.35 375.31
  Q 551.11 348.49 511.77 327.50
  A 2.15 2.14 44.6 0 0 509.74 327.51
  Q 493.13 336.59 478.15 345.90
  Q 464.87 354.16 436.74 374.73
  Q 435.03 375.98 434.78 378.38
  C 432.42 400.61 432.37 421.96 433.89 443.71
  Q 434.37 450.69 435.17 454.77
  A 1.21 1.20 12.9 0 0 435.64 455.51
  Q 466.32 478.47 497.77 497.23
  Q 504.46 501.22 510.73 504.49
  A 1.26 1.26 0.0 0 0 511.94 504.47
  Z
  M 603.02 414.90
  Q 603.00 430.91 602.18 441.84
  A 0.33 0.32 72.4 0 0 602.71 442.12
  Q 618.18 429.53 632.99 415.42
  Q 633.13 415.28 633.13 414.94
  Q 633.13 414.61 633.00 414.48
  Q 618.23 400.31 602.80 387.67
  A 0.33 0.32 -72.2 0 0 602.28 387.95
  Q 603.05 398.88 603.02 414.90
  Z
  M 418.08 415.14
  Q 418.12 399.49 418.93 388.80
  A 0.32 0.32 0.0 0 0 418.42 388.53
  Q 403.28 400.82 388.78 414.59
  Q 388.64 414.72 388.64 415.06
  Q 388.64 415.38 388.78 415.51
  Q 403.19 429.38 418.25 441.75
  A 0.32 0.32 0.0 0 0 418.77 441.49
  Q 418.03 430.80 418.08 415.14
  Z
  M 377.92 426.06
  A 0.68 0.67 34.6 0 0 377.13 426.20
  Q 354.48 449.93 336.34 476.32
  Q 326.58 490.50 320.66 506.41
  Q 316.40 517.86 316.59 529.92
  C 316.87 547.60 331.72 556.05 347.53 557.06
  Q 370.31 558.52 393.01 552.90
  C 404.21 550.13 419.15 545.52 430.78 541.12
  A 1.01 1.00 73.9 0 0 431.40 539.98
  Q 427.39 519.89 425.14 506.42
  C 422.80 492.42 421.69 476.82 420.03 462.50
  A 3.45 3.42 -74.7 0 0 418.72 460.18
  C 403.81 448.53 391.83 439.02 378.97 426.78
  Q 378.58 426.41 377.92 426.06
  Z
  M 590.50 540.81
  C 608.52 547.58 625.72 552.87 645.31 555.67
  C 667.80 558.88 705.80 559.78 704.99 526.96
  C 704.59 510.81 697.09 495.96 688.97 482.52
  Q 670.74 452.35 645.21 426.53
  A 1.18 1.17 46.6 0 0 643.59 426.48
  Q 625.69 442.49 603.63 459.88
  Q 601.27 461.74 601.11 463.37
  Q 598.20 492.93 597.44 497.66
  Q 594.33 516.89 589.54 539.04
  A 1.54 1.53 16.6 0 0 590.50 540.81
  Z
  M 585.28 473.89
  A 0.19 0.19 0.0 0 0 584.97 473.76
  Q 577.99 479.71 570.28 485.02
  Q 546.73 501.22 527.18 512.49
  A 0.64 0.64 0.0 0 0 527.20 513.60
  C 542.03 521.64 555.71 526.85 575.32 534.60
  A 0.46 0.45 -73.5 0 0 575.93 534.26
  Q 581.68 506.82 585.10 479.01
  Q 585.43 476.30 585.28 473.89
  Z
  M 445.93 535.22
  Q 454.76 531.31 467.14 526.34
  C 476.96 522.40 486.35 517.75 495.06 512.68
  A 0.19 0.19 0.0 0 0 495.06 512.35
  Q 464.15 495.06 436.46 474.35
  A 0.33 0.33 0.0 0 0 435.94 474.65
  Q 439.06 505.30 445.13 534.81
  A 0.58 0.58 0.0 0 0 445.93 535.22
  Z"
/>
<path fill="#0a1d2c" d="
  M 573.51 278.95
  A 1.11 1.10 72.5 0 1 572.85 280.23
  Q 543.08 292.27 513.55 309.08
  Q 511.38 310.32 508.77 308.99
  C 496.91 302.91 487.61 297.71 476.24 292.73
  Q 460.18 285.69 448.83 281.13
  A 1.54 1.54 0.0 0 1 447.91 279.33
  C 453.46 256.78 461.56 234.57 473.04 214.55
  Q 479.71 202.92 490.13 193.19
  C 500.28 183.72 516.35 181.12 527.85 189.90
  C 542.16 200.83 551.81 218.28 558.82 234.88
  C 564.21 247.66 570.08 264.75 573.51 278.95
  Z"
/>
<circle fill="#36bde6" cx="659.87" cy="269.59" r="25.20"/>
<path fill="#0a1d2c" d="
  M 585.46 355.76
  A 0.46 0.45 -74.6 0 1 584.74 356.17
  Q 566.75 343.11 548.50 331.52
  Q 538.06 324.89 527.88 319.61
  A 0.83 0.83 0.0 0 1 527.86 318.14
  Q 550.89 305.52 576.08 294.94
  A 0.65 0.65 0.0 0 1 576.98 295.42
  Q 582.51 325.60 585.46 355.76
  Z"
/>
<path fill="#0a1d2c" d="
  M 436.51 356.24
  A 0.41 0.40 75.9 0 1 435.88 355.86
  Q 438.29 332.35 441.06 313.07
  Q 442.22 304.94 443.92 296.70
  A 0.77 0.76 15.9 0 1 444.93 296.14
  Q 470.22 305.16 494.34 318.36
  A 0.36 0.36 0.0 0 1 494.37 318.97
  Q 490.62 321.41 489.85 321.85
  Q 470.46 332.73 454.73 343.74
  Q 446.26 349.66 436.51 356.24
  Z"
/>
<path fill="#0a1d2c" d="
  M 511.94 504.47
  A 1.26 1.26 0.0 0 1 510.73 504.49
  Q 504.46 501.22 497.77 497.23
  Q 466.32 478.47 435.64 455.51
  A 1.21 1.20 12.9 0 1 435.17 454.77
  Q 434.37 450.69 433.89 443.71
  C 432.37 421.96 432.42 400.61 434.78 378.38
  Q 435.03 375.98 436.74 374.73
  Q 464.87 354.16 478.15 345.90
  Q 493.13 336.59 509.74 327.51
  A 2.15 2.14 44.6 0 1 511.77 327.50
  Q 551.11 348.49 586.35 375.31
  A 1.11 1.09 16.1 0 1 586.80 376.11
  Q 590.38 414.97 586.46 453.24
  A 3.84 3.82 74.1 0 1 585.01 455.86
  Q 561.09 474.56 542.21 486.45
  Q 530.24 493.99 511.94 504.47
  Z
  M 515.8445 368.8992
  A 46.36 45.47 -84.3 0 0 465.9948 410.5139
  A 46.36 45.47 -84.3 0 0 506.6355 461.1608
  A 46.36 45.47 -84.3 0 0 556.4852 419.5461
  A 46.36 45.47 -84.3 0 0 515.8445 368.8992
  Z"
/>
<ellipse fill="#36bde6" cx="0.00" cy="0.00" transform="translate(346.33,376.58) rotate(-72.6)" rx="24.72" ry="24.34"/>
<ellipse fill="#36bde6" cx="0.00" cy="0.00" transform="translate(511.24,415.03) rotate(-84.3)" rx="46.36" ry="45.47"/>
<path fill="#0a1d2c" d="
  M 633.13 414.94
  Q 633.13 415.28 632.99 415.42
  Q 618.18 429.53 602.71 442.12
  A 0.33 0.32 72.4 0 1 602.18 441.84
  Q 603.00 430.91 603.02 414.90
  Q 603.05 398.88 602.28 387.95
  A 0.33 0.32 -72.2 0 1 602.80 387.67
  Q 618.23 400.31 633.00 414.48
  Q 633.13 414.61 633.13 414.94
  Z"
/>
<path fill="#0a1d2c" d="
  M 418.08 415.14
  Q 418.03 430.80 418.77 441.49
  A 0.32 0.32 0.0 0 1 418.25 441.75
  Q 403.19 429.38 388.78 415.51
  Q 388.64 415.38 388.64 415.06
  Q 388.64 414.72 388.78 414.59
  Q 403.28 400.82 418.42 388.53
  A 0.32 0.32 0.0 0 1 418.93 388.80
  Q 418.12 399.49 418.08 415.14
  Z"
/>
<path fill="#0a1d2c" d="
  M 377.92 426.06
  Q 378.58 426.41 378.97 426.78
  C 391.83 439.02 403.81 448.53 418.72 460.18
  A 3.45 3.42 -74.7 0 1 420.03 462.50
  C 421.69 476.82 422.80 492.42 425.14 506.42
  Q 427.39 519.89 431.40 539.98
  A 1.01 1.00 73.9 0 1 430.78 541.12
  C 419.15 545.52 404.21 550.13 393.01 552.90
  Q 370.31 558.52 347.53 557.06
  C 331.72 556.05 316.87 547.60 316.59 529.92
  Q 316.40 517.86 320.66 506.41
  Q 326.58 490.50 336.34 476.32
  Q 354.48 449.93 377.13 426.20
  A 0.68 0.67 34.6 0 1 377.92 426.06
  Z"
/>
<path fill="#0a1d2c" d="
  M 590.50 540.81
  A 1.54 1.53 16.6 0 1 589.54 539.04
  Q 594.33 516.89 597.44 497.66
  Q 598.20 492.93 601.11 463.37
  Q 601.27 461.74 603.63 459.88
  Q 625.69 442.49 643.59 426.48
  A 1.18 1.17 46.6 0 1 645.21 426.53
  Q 670.74 452.35 688.97 482.52
  C 697.09 495.96 704.59 510.81 704.99 526.96
  C 705.80 559.78 667.80 558.88 645.31 555.67
  C 625.72 552.87 608.52 547.58 590.50 540.81
  Z"
/>
<path fill="#0a1d2c" d="
  M 585.28 473.89
  Q 585.43 476.30 585.10 479.01
  Q 581.68 506.82 575.93 534.26
  A 0.46 0.45 -73.5 0 1 575.32 534.60
  C 555.71 526.85 542.03 521.64 527.20 513.60
  A 0.64 0.64 0.0 0 1 527.18 512.49
  Q 546.73 501.22 570.28 485.02
  Q 577.99 479.71 584.97 473.76
  A 0.19 0.19 0.0 0 1 585.28 473.89
  Z"
/>
<path fill="#0a1d2c" d="
  M 445.93 535.22
  A 0.58 0.58 0.0 0 1 445.13 534.81
  Q 439.06 505.30 435.94 474.65
  A 0.33 0.33 0.0 0 1 436.46 474.35
  Q 464.15 495.06 495.06 512.35
  A 0.19 0.19 0.0 0 1 495.06 512.68
  C 486.35 517.75 476.96 522.40 467.14 526.34
  Q 454.76 531.31 445.93 535.22
  Z"
/>
<ellipse fill="#36bde6" cx="0.00" cy="0.00" transform="translate(560.28,600.09) rotate(-82.2)" rx="25.01" ry="24.57"/>
<path fill="#ffffff" d="
  M 154.79 794.95
  A 0.98 0.97 -44.0 0 0 154.76 796.35
  L 165.33 806.91
  A 0.66 0.66 0.0 0 1 165.26 807.91
  L 155.21 815.57
  A 0.53 0.53 0.0 0 1 154.50 815.50
  L 143.52 803.64
  A 1.26 1.23 -25.6 0 0 142.40 803.26
  Q 132.11 804.95 124.44 802.96
  C 103.70 797.57 100.80 771.60 104.56 754.35
  C 107.22 742.17 115.56 732.51 128.28 730.60
  C 150.14 727.32 163.88 742.12 164.80 762.74
  C 165.35 775.19 164.17 786.09 154.79 794.95
  Z
  M 118.35 767.13
  C 118.31 777.46 120.67 791.07 134.12 791.12
  C 147.58 791.17 150.04 777.57 150.08 767.24
  C 150.11 756.92 147.75 743.30 134.30 743.25
  C 120.84 743.20 118.38 756.80 118.35 767.13
  Z"
/>
<path fill="#ffffff" d="
  M 589.03 782.69
  A 0.71 0.71 0.0 0 1 589.74 781.97
  L 601.96 781.97
  A 0.75 0.74 79.9 0 1 602.66 782.46
  Q 604.06 786.16 606.14 787.96
  A 4.57 4.42 78.4 0 0 607.03 788.57
  Q 615.48 793.01 623.56 789.83
  C 629.68 787.43 629.85 778.61 623.91 775.59
  C 618.45 772.81 611.84 772.00 606.97 770.55
  C 597.51 767.73 590.17 761.48 590.34 751.01
  C 590.77 723.59 639.46 722.77 641.76 749.75
  A 0.95 0.94 87.8 0 1 640.82 750.77
  L 628.85 750.77
  A 1.08 1.08 0.0 0 1 627.83 750.04
  Q 626.21 745.31 621.31 743.72
  C 616.73 742.23 608.10 742.66 605.80 747.96
  C 603.31 753.69 607.35 756.89 612.38 758.36
  C 617.20 759.78 626.71 761.13 632.85 764.42
  Q 646.60 771.80 642.47 787.51
  C 638.60 802.24 621.40 806.32 608.19 803.32
  C 598.06 801.02 589.11 793.90 589.03 782.69
  Z"
/>
<path fill="#ffffff" d="
  M 745.27 730.18
  C 754.02 730.44 761.83 733.48 767.66 740.10
  C 774.76 748.17 776.67 757.57 776.35 768.15
  C 776.04 778.74 773.58 788.00 766.01 795.64
  C 759.80 801.90 751.83 804.48 743.07 804.22
  C 734.32 803.96 726.51 800.92 720.68 794.29
  C 713.58 786.22 711.67 776.83 711.99 766.24
  C 712.30 755.66 714.76 746.39 722.33 738.76
  C 728.54 732.49 736.51 729.92 745.27 730.18
  Z
  M 727.04 767.26
  C 726.97 778.39 730.24 790.96 743.94 791.04
  C 757.65 791.12 761.07 778.60 761.14 767.47
  C 761.21 756.34 757.94 743.77 744.23 743.68
  C 730.53 743.60 727.10 756.13 727.04 767.26
  Z"
/>
<path fill="#ffffff" d="
  M 848.05 779.97
  A 0.46 0.46 0.0 0 1 848.50 780.51
  Q 844.32 804.62 819.49 804.12
  Q 805.66 803.84 797.41 794.58
  C 788.43 784.53 787.70 769.89 789.80 756.51
  C 791.61 745.01 798.68 735.36 810.05 731.63
  C 818.84 728.74 830.53 729.97 837.98 735.31
  Q 847.31 742.00 848.65 754.58
  A 0.87 0.87 0.0 0 1 847.78 755.54
  L 835.13 755.54
  A 0.98 0.98 0.0 0 1 834.15 754.65
  C 832.75 740.30 812.57 740.35 807.03 751.55
  C 802.68 760.33 802.32 779.32 809.67 786.52
  C 817.28 793.97 831.67 792.61 834.22 780.74
  A 0.97 0.97 0.0 0 1 835.17 779.97
  L 848.05 779.97
  Z"
/>
<path fill="#ffffff" d="
  M 342.63 763.82
  C 344.72 767.35 346.97 770.65 348.93 774.15
  A 0.20 0.20 0.0 0 0 349.30 774.05
  L 349.30 732.06
  A 0.52 0.51 0.0 0 1 349.82 731.55
  L 363.43 731.55
  A 0.65 0.64 -90.0 0 1 364.07 732.20
  L 364.07 802.16
  A 0.69 0.69 0.0 0 1 363.38 802.85
  L 353.02 802.85
  A 1.22 1.22 0.0 0 1 352.01 802.31
  Q 337.99 781.36 331.62 770.58
  C 329.54 767.05 327.29 763.74 325.32 760.25
  A 0.20 0.20 0.0 0 0 324.95 760.35
  L 324.95 802.34
  A 0.52 0.51 0.0 0 1 324.43 802.85
  L 310.82 802.85
  A 0.65 0.64 -90.0 0 1 310.18 802.20
  L 310.18 732.24
  A 0.69 0.69 0.0 0 1 310.87 731.55
  L 321.23 731.55
  A 1.22 1.22 0.0 0 1 322.25 732.09
  Q 336.27 753.04 342.63 763.82
  Z"
/>
<path fill="#ffffff" d="
  M 401.55 731.73
  Q 426.12 731.69 426.23 731.67
  A 0.69 0.69 0.0 0 1 427.03 732.36
  L 427.07 744.60
  A 1.30 1.30 0.0 0 1 425.77 745.91
  L 409.65 745.91
  A 0.56 0.55 -0.0 0 0 409.09 746.46
  L 409.09 802.33
  A 0.56 0.55 -2.3 0 1 408.58 802.88
  Q 406.81 803.01 401.68 803.02
  Q 396.56 803.03 394.79 802.91
  A 0.56 0.55 2.1 0 1 394.28 802.36
  L 394.07 746.49
  A 0.56 0.55 -0.2 0 0 393.51 745.94
  L 377.39 746.00
  A 1.30 1.30 0.0 0 1 376.09 744.69
  L 376.08 732.45
  A 0.69 0.69 0.0 0 1 376.88 731.76
  Q 376.99 731.78 401.55 731.73
  Z"
/>
<path fill="#ffffff" d="
  M 465.63 790.85
  C 476.28 790.85 477.47 782.22 477.42 773.75
  Q 477.32 755.52 477.30 732.42
  A 0.68 0.68 0.0 0 1 477.98 731.74
  L 491.45 731.74
  A 0.65 0.65 0.0 0 1 492.10 732.39
  Q 492.14 741.65 492.14 769.28
  C 492.14 777.07 492.42 783.00 490.04 788.94
  C 485.81 799.45 476.88 804.04 465.64 804.05
  C 454.39 804.06 445.45 799.48 441.21 788.97
  C 438.82 783.04 439.09 777.11 439.08 769.32
  Q 439.03 741.69 439.06 732.43
  A 0.65 0.65 0.0 0 1 439.71 731.78
  L 453.18 731.76
  A 0.68 0.68 0.0 0 1 453.86 732.44
  Q 453.87 755.54 453.80 773.77
  C 453.77 782.24 454.97 790.86 465.63 790.85
  Z"
/>
<path fill="#ffffff" d="
  M 541.53 767.61
  Q 541.70 767.61 541.83 767.39
  Q 547.96 756.83 562.01 732.46
  A 1.55 1.53 14.6 0 1 563.35 731.69
  L 575.59 731.69
  A 0.41 0.41 0.0 0 1 576.00 732.10
  L 576.00 801.83
  A 1.15 1.14 -90.0 0 1 574.86 802.98
  L 562.00 802.98
  A 0.73 0.72 -90.0 0 1 561.28 802.25
  L 561.28 759.74
  A 0.24 0.23 59.9 0 0 560.84 759.62
  Q 552.62 774.44 544.14 788.61
  Q 543.62 789.47 541.57 789.47
  Q 539.51 789.47 538.99 788.62
  Q 530.47 774.48 522.20 759.68
  A 0.24 0.23 -60.1 0 0 521.76 759.80
  L 521.90 802.31
  A 0.73 0.72 89.8 0 1 521.18 803.05
  L 508.32 803.09
  A 1.15 1.14 89.8 0 1 507.18 801.94
  L 506.95 732.21
  A 0.41 0.41 0.0 0 1 507.36 731.80
  L 519.60 731.76
  A 1.55 1.53 -14.8 0 1 520.94 732.53
  Q 535.07 756.85 541.23 767.39
  Q 541.36 767.61 541.53 767.61
  Z"
/>
<path fill="#ffffff" d="
  M 876.96 761.84
  A 0.08 0.08 0.0 0 0 877.10 761.89
  L 897.98 733.07
  A 3.33 3.30 17.8 0 1 900.67 731.70
  L 915.79 731.70
  A 0.30 0.30 0.0 0 1 916.03 732.18
  L 893.48 761.30
  A 1.74 1.73 47.0 0 0 893.42 763.36
  L 920.17 802.28
  A 0.47 0.46 -17.3 0 1 919.78 803.01
  L 903.35 803.01
  A 1.72 1.70 -15.7 0 1 901.89 802.20
  L 883.94 773.34
  A 0.30 0.30 0.0 0 0 883.46 773.31
  Q 882.01 775.14 878.12 780.31
  Q 876.78 782.10 876.86 786.38
  Q 877.04 795.00 876.87 802.37
  A 0.65 0.65 0.0 0 1 876.22 803.01
  L 862.82 803.01
  A 0.71 0.71 0.0 0 1 862.11 802.30
  L 862.11 732.32
  A 0.59 0.58 -0.0 0 1 862.70 731.74
  L 876.31 731.74
  A 0.65 0.65 0.0 0 1 876.96 732.39
  L 876.96 761.84
  Z"
/>
<path fill="#ffffff" d="
  M 204.21 804.20
  C 192.92 804.19 183.97 799.58 179.74 789.03
  C 177.35 783.08 177.63 777.13 177.64 769.31
  Q 177.65 741.60 177.70 732.31
  A 0.65 0.65 0.0 0 1 178.35 731.66
  L 191.86 731.67
  A 0.68 0.68 0.0 0 1 192.54 732.35
  Q 192.51 755.52 192.40 773.80
  C 192.35 782.30 193.53 790.95 204.22 790.97
  C 214.91 790.98 216.12 782.33 216.09 773.83
  Q 216.03 755.55 216.05 732.38
  A 0.68 0.68 0.0 0 1 216.74 731.70
  L 230.25 731.73
  A 0.65 0.65 0.0 0 1 230.90 732.38
  Q 230.92 741.67 230.86 769.38
  C 230.85 777.20 231.11 783.14 228.71 789.09
  C 224.45 799.63 215.49 804.22 204.21 804.20
  Z"
/>
<path fill="#ffffff" d="
  M 269.25 731.71
  Q 273.16 731.72 276.99 731.78
  A 0.84 0.83 -8.1 0 1 277.77 732.36
  L 300.19 801.97
  A 0.84 0.83 80.9 0 1 299.40 803.07
  L 285.67 803.07
  A 1.18 1.18 0.0 0 1 284.54 802.24
  L 280.51 789.73
  A 0.46 0.46 0.0 0 0 280.10 789.42
  Q 277.85 789.33 269.09 789.31
  Q 260.33 789.29 258.08 789.36
  A 0.46 0.46 0.0 0 0 257.67 789.67
  L 253.57 802.16
  A 1.18 1.18 0.0 0 1 252.43 802.98
  L 238.70 802.91
  A 0.84 0.83 -80.6 0 1 237.92 801.80
  L 260.72 732.31
  A 0.84 0.83 8.4 0 1 261.50 731.74
  Q 265.33 731.70 269.25 731.71
  Z
  M 269.09 777.09
  Q 272.61 777.11 276.44 777.00
  A 0.56 0.56 0.0 0 0 276.96 776.28
  Q 272.41 760.71 269.55 747.86
  Q 269.50 747.61 269.23 747.61
  Q 268.96 747.61 268.90 747.85
  Q 265.92 760.68 261.22 776.20
  A 0.56 0.56 0.0 0 0 261.74 776.92
  Q 265.56 777.07 269.09 777.09
  Z"
/>
<path fill="#ffffff" d="
  M 678.00 731.78
  Q 690.72 731.77 704.24 731.74
  A 0.74 0.73 0.0 0 1 704.98 732.47
  L 704.98 745.06
  A 0.84 0.84 0.0 0 1 704.14 745.90
  L 685.80 745.90
  A 0.34 0.34 0.0 0 0 685.46 746.24
  L 685.46 802.61
  A 0.31 0.31 0.0 0 1 685.17 802.92
  Q 683.63 803.00 678.05 803.00
  Q 672.48 803.00 670.94 802.93
  A 0.31 0.31 0.0 0 1 670.65 802.62
  L 670.56 746.25
  A 0.34 0.34 0.0 0 0 670.22 745.91
  L 651.88 745.94
  A 0.84 0.84 0.0 0 1 651.04 745.10
  L 651.02 732.51
  A 0.74 0.73 -0.1 0 1 651.76 731.78
  Q 665.28 731.79 678.00 731.78
  Z"
/>
<path fill="#0a1d2c" d="
  M 134.30 743.25
  C 147.75 743.30 150.11 756.92 150.08 767.24
  C 150.04 777.57 147.58 791.17 134.12 791.12
  C 120.67 791.07 118.31 777.46 118.35 767.13
  C 118.38 756.80 120.84 743.20 134.30 743.25
  Z"
/>
<path fill="#0a1d2c" d="
  M 744.23 743.68
  C 757.94 743.77 761.21 756.34 761.14 767.47
  C 761.07 778.60 757.65 791.12 743.94 791.04
  C 730.24 790.96 726.97 778.39 727.04 767.26
  C 727.10 756.13 730.53 743.60 744.23 743.68
  Z"
/>
<path fill="#0a1d2c" d="
  M 269.23 747.61
  Q 269.50 747.61 269.55 747.86
  Q 272.41 760.71 276.96 776.28
  A 0.56 0.56 0.0 0 1 276.44 777.00
  Q 272.61 777.11 269.09 777.09
  Q 265.56 777.07 261.74 776.92
  A 0.56 0.56 0.0 0 1 261.22 776.20
  Q 265.92 760.68 268.90 747.85
  Q 268.96 747.61 269.23 747.61
  Z"
/>
</svg>
